<svg xmlns="http://www.w3.org/2000/svg" viewBox="0 0 86.17 26.69"><defs><style>.cls-1{fill:#0ffcff;}</style></defs><title>资源 80</title><g id="图层_2" data-name="图层 2"><g id="图层_1-2" data-name="图层 1"><polygon class="cls-1" points="0 0 0 0.81 0 4.58 0.81 4.58 0.81 0.81 4.58 0.81 4.58 0 0.81 0 0 0"/><polygon class="cls-1" points="85.36 25.88 81.58 25.88 81.58 26.69 85.36 26.69 86.17 26.69 86.17 25.88 86.17 22.1 85.36 22.1 85.36 25.88"/><polygon class="cls-1" points="0.81 22.1 0 22.1 0 25.88 0 26.69 0.81 26.69 4.58 26.69 4.58 25.88 0.81 25.88 0.81 22.1"/><polygon class="cls-1" points="85.36 0 81.58 0 81.58 0.81 85.36 0.81 85.36 4.58 86.17 4.58 86.17 0.81 86.17 0 85.36 0"/></g></g></svg>