<svg xmlns="http://www.w3.org/2000/svg" viewBox="0 0 46.54 46.54"><defs><style>.cls-1{fill:#fff;}</style></defs><title>搜索</title><g id="图层_2" data-name="图层 2"><g id="图层_1-2" data-name="图层 1"><path class="cls-1" d="M17.45,0A17.45,17.45,0,1,0,34.9,17.45,17.45,17.45,0,0,0,17.45,0Zm0,30.54A13.09,13.09,0,1,1,30.54,17.45,13.11,13.11,0,0,1,17.45,30.54Z"/><path class="cls-1" d="M17.45,10.18a7.29,7.29,0,0,0-7.27,7.27H7.27A10.2,10.2,0,0,1,17.45,7.27Z"/><path class="cls-1" d="M17.45,10.18"/><path class="cls-1" d="M45.26,45.26a4.36,4.36,0,0,1-6.17,0L28.4,34.58a20.59,20.59,0,0,0,6.17-6.17L45.26,39.08a4.36,4.36,0,0,1,0,6.17Z"/><path class="cls-1" d="M45.26,45.26"/></g></g></svg>